<svg version="1.1" id="Layer_1" xmlns="http://www.w3.org/2000/svg" xmlns:xlink="http://www.w3.org/1999/xlink" x="0px" y="0px"
	 width="100%" viewBox="0 0 2000 1420" enable-background="new 0 0 2000 1420" xml:space="preserve">
<path fill="#EAEBBF" opacity="1.000000" stroke="none" 
	d="
M1.000005,626.000000 
	C1.000000,417.783936 1.000000,209.567856 1.000000,1.000000 
	C44.357605,1.000000 87.716164,1.000000 131.549072,1.386261 
	C131.961365,6.615132 135.484360,9.103196 138.677368,11.744047 
	C145.195221,17.134796 151.734833,22.501204 158.345123,27.777834 
	C171.693466,38.433064 184.689865,49.589535 198.575668,59.496075 
	C216.519211,72.297523 235.017883,84.349464 253.605240,96.210564 
	C267.770081,105.249519 282.005310,114.369179 297.003601,121.863083 
	C316.114929,131.412048 335.988556,139.447083 355.609192,147.960403 
	C366.350952,152.621201 378.007080,155.664078 387.923157,161.639816 
	C410.954315,175.519135 433.062622,190.919907 455.777924,205.337051 
	C468.223999,213.236420 480.809357,221.046326 493.929169,227.722961 
	C512.639099,237.244400 531.731323,246.069061 550.976440,254.466705 
	C565.193542,260.670349 579.821838,265.979797 594.445679,271.185547 
	C603.800842,274.515747 613.446838,277.056030 623.026672,279.719421 
	C631.079041,281.958099 639.140259,284.329468 647.348022,285.805237 
	C659.406616,287.973419 671.700867,288.881256 683.712830,291.248566 
	C705.664856,295.574921 727.962708,296.061676 750.097534,296.613647 
	C778.488708,297.321625 806.942322,295.689850 835.363342,294.871155 
	C839.910400,294.740173 844.428162,293.590973 849.297974,292.931335 
	C850.088318,292.938232 850.540100,292.926300 851.457397,292.942688 
	C861.324463,292.309448 870.727295,291.666473 880.127136,290.981842 
	C894.145203,289.960876 908.164978,288.958984 922.177063,287.859741 
	C938.152649,286.606445 954.125427,285.309265 970.085754,283.878418 
	C972.085693,283.699127 974.002258,282.589813 976.336060,281.932220 
	C977.471802,281.923065 978.228821,281.893158 979.454468,281.902374 
	C989.851257,281.295105 999.771057,280.430908 1009.709473,280.047241 
	C1030.965942,279.226593 1052.228027,278.396301 1073.495483,278.077393 
	C1086.284912,277.885590 1099.090942,278.585632 1111.885498,279.007111 
	C1119.851074,279.269501 1127.855103,279.349701 1135.760376,280.237640 
	C1150.150635,281.853973 1164.481323,284.002777 1178.834717,285.945435 
	C1184.904541,286.766968 1191.093018,287.121063 1197.012939,288.566803 
	C1215.628540,293.113159 1234.308350,297.525574 1252.643066,303.052246 
	C1267.439087,307.512238 1282.040039,312.883575 1296.245728,318.974609 
	C1317.875366,328.248810 1338.874756,338.679321 1358.590698,351.907349 
	C1378.682129,365.387238 1397.701294,380.022552 1415.082764,396.720795 
	C1425.739136,406.958099 1436.060425,417.681366 1445.428223,429.092712 
	C1461.822876,449.063721 1478.589355,468.961517 1487.832031,493.655823 
	C1494.734375,512.097534 1501.551147,530.577576 1507.976440,549.188904 
	C1511.250366,558.672058 1513.460693,568.517334 1516.363525,578.135010 
	C1520.000977,590.186951 1524.026123,602.123535 1527.550537,614.207214 
	C1529.536865,621.017395 1530.760254,628.046448 1532.493774,634.935059 
	C1534.598511,643.299377 1536.944092,651.602966 1539.068970,659.962402 
	C1543.431885,677.126099 1547.652954,694.326111 1552.053101,711.480164 
	C1556.288940,727.994019 1560.630005,744.481384 1565.010742,760.957520 
	C1570.157837,780.314880 1575.117554,799.728882 1580.697021,818.962036 
	C1584.296631,831.370178 1588.744263,843.539612 1593.028320,855.739990 
	C1598.792480,872.155212 1604.372925,888.651855 1610.752441,904.829529 
	C1617.906250,922.970642 1625.287720,941.066772 1633.610474,958.691223 
	C1645.285767,983.415283 1657.141357,1008.118103 1670.385864,1032.017700 
	C1681.533569,1052.133667 1694.294678,1071.415161 1707.218384,1090.471558 
	C1721.175781,1111.052490 1736.018677,1131.040649 1750.752075,1151.084106 
	C1756.148193,1158.424805 1762.213745,1165.289917 1768.192749,1172.182129 
	C1778.940430,1184.571533 1789.596558,1197.057129 1800.785645,1209.040771 
	C1808.579102,1217.387573 1817.094849,1225.074707 1825.478271,1232.851318 
	C1833.633179,1240.415771 1841.609253,1248.268188 1850.413208,1255.016724 
	C1866.176758,1267.100220 1882.251343,1278.819702 1898.675171,1289.986328 
	C1911.276733,1298.554199 1924.258301,1306.714355 1937.722900,1313.820435 
	C1952.185059,1321.452881 1967.339844,1327.799683 1982.333984,1334.384644 
	C1988.361816,1337.031982 1994.766724,1338.820679 2001.000000,1341.000000 
	C2001.000000,1367.657593 2001.000000,1394.315063 2001.000000,1421.000000 
	C1611.975098,1421.000000 1222.950195,1421.000000 833.448303,1420.593262 
	C830.671509,1410.874634 828.965210,1401.364868 825.941772,1392.294312 
	C820.518066,1376.023193 814.607727,1359.895996 808.326660,1343.934570 
	C802.735779,1329.726807 797.010376,1315.503296 790.183594,1301.867798 
	C781.291809,1284.107910 771.278259,1266.908325 761.703918,1249.491577 
	C748.105347,1224.754028 732.174744,1201.504028 715.654358,1178.687744 
	C700.273743,1157.445557 684.674438,1136.325195 668.299377,1115.848633 
	C647.681458,1090.066650 626.615601,1064.611206 604.918945,1039.733521 
	C587.227600,1019.448425 568.744995,999.805603 549.846558,980.633789 
	C528.842041,959.325439 507.027039,938.812866 485.437714,918.086304 
	C479.091187,911.993469 472.400177,906.248413 465.712616,900.524353 
	C453.367676,889.958191 440.937561,879.490906 428.488525,869.047302 
	C417.178070,859.558899 405.987915,849.911987 394.391693,840.783447 
	C382.129944,831.131104 369.528564,821.902771 356.933167,812.683777 
	C343.947876,803.179443 330.941162,793.689941 317.661102,784.607300 
	C307.279144,777.506897 296.468903,771.032349 285.841827,764.290955 
	C275.070618,757.458252 264.381714,750.489868 253.485916,743.861694 
	C244.713730,738.525513 235.652390,733.667114 226.782394,728.488708 
	C217.658051,723.161804 208.820007,717.305359 199.484039,712.388123 
	C181.304779,702.813232 163.002121,693.448303 144.493469,684.530090 
	C127.210785,676.202576 109.665848,668.405334 92.101936,660.680298 
	C79.241066,655.023743 66.219299,649.718994 53.157421,644.539429 
	C46.470314,641.887756 39.507885,639.939026 32.723194,637.522949 
	C22.125000,633.748779 11.572098,629.847412 1.000005,626.000000 
z"/>
<path fill="#C3D897" opacity="1.000000" stroke="none" 
	d="
M978.985901,281.863220 
	C978.228821,281.893158 977.471802,281.923065 976.015381,281.681915 
	C966.770020,280.873932 958.343262,281.950897 949.844971,282.558990 
	C933.645691,283.718109 917.486633,284.586243 901.338440,286.764862 
	C886.564697,288.758026 871.546326,288.901855 856.656494,290.115021 
	C854.705200,290.274017 852.877075,291.944153 850.991882,292.914368 
	C850.540100,292.926300 850.088318,292.938232 848.977051,292.680786 
	C847.005188,292.273468 845.690491,291.996948 844.380859,292.018646 
	C827.986572,292.289978 811.604980,292.853241 795.224365,293.535217 
	C769.423401,294.609436 743.496826,292.671051 717.623718,291.997559 
	C712.478638,291.863617 707.307312,291.958710 702.197327,291.451813 
	C696.029968,290.839996 689.911255,289.723419 683.778503,288.779449 
	C678.912476,288.030426 674.042603,287.290985 669.200562,286.404724 
	C663.435242,285.349548 657.707458,284.089905 651.945251,283.016724 
	C647.123230,282.118622 642.181702,281.714752 637.458191,280.467010 
	C628.100891,277.995270 618.878357,275.017731 609.552063,272.421722 
	C607.349915,271.808746 604.808716,272.305634 602.678467,271.561798 
	C593.515320,268.362457 584.314819,265.205933 575.375122,261.445923 
	C561.553040,255.632385 548.081665,248.972168 534.192261,243.334534 
	C513.363892,234.880463 493.868683,224.001190 474.696808,212.403671 
	C465.925354,207.097595 456.571014,202.724350 447.980042,197.157959 
	C435.477478,189.057159 423.486938,180.170761 411.166443,171.783295 
	C395.498077,161.116653 379.480774,151.111969 361.014038,145.756622 
	C358.402618,144.999329 356.124237,142.989105 353.803711,141.395737 
	C353.088135,140.904358 352.170471,139.738800 352.316864,139.107025 
	C354.249084,130.767548 348.317047,125.711975 343.488129,121.425850 
	C332.485138,111.659683 320.478088,103.024544 308.876953,93.932495 
	C298.957886,86.158699 288.914642,78.537231 279.154327,70.569038 
	C271.588470,64.392334 264.434662,57.713661 256.984344,51.391644 
	C251.547363,46.777996 245.797592,42.529499 240.415054,37.855885 
	C230.918930,29.610453 221.833450,20.873917 212.089111,12.941130 
	C207.986893,9.601545 205.058716,6.515051 206.000000,1.000000 
	C454.358246,1.000000 702.716492,1.000000 951.593384,1.348183 
	C952.670593,2.500737 953.047546,3.647039 953.816406,4.055327 
	C959.952271,7.313646 965.902771,11.184433 972.406555,13.429094 
	C984.123169,17.472908 996.100525,20.852043 1008.128357,23.874676 
	C1018.065552,26.371908 1028.159790,29.001434 1038.314209,29.707621 
	C1055.536743,30.905357 1072.875366,31.208269 1090.138550,30.789574 
	C1102.845825,30.481377 1115.552612,28.733829 1128.179443,27.033094 
	C1136.506958,25.911459 1144.695557,23.750648 1152.940308,22.025892 
	C1161.528076,20.229399 1170.163574,18.622126 1178.678955,16.528542 
	C1191.229126,13.443017 1203.741089,10.174041 1216.165771,6.621089 
	C1220.923950,5.260437 1225.396973,2.903134 1230.000000,0.999996 
	C1340.024902,1.000000 1450.049805,1.000000 1560.632812,1.338332 
	C1561.982910,2.210485 1562.705444,2.942121 1563.577393,3.247997 
	C1573.669189,6.788588 1583.860718,10.058490 1593.873901,13.806164 
	C1609.003662,19.468840 1623.975708,25.552094 1639.092041,31.251593 
	C1645.248169,33.572678 1651.584106,35.432785 1657.895996,37.307888 
	C1658.898804,37.605816 1660.207886,36.872696 1661.375488,36.616249 
	C1660.938232,35.631069 1660.730347,34.419369 1660.021851,33.702240 
	C1657.696045,31.348040 1655.417236,28.838051 1652.709106,26.990707 
	C1643.562622,20.751472 1634.312500,14.655368 1624.941528,8.759359 
	C1621.859131,6.819903 1620.404663,4.560060 1621.000000,1.000000 
	C1623.370728,1.000000 1625.741577,1.000000 1628.607910,1.345788 
	C1634.676636,5.755467 1639.988647,10.251906 1645.871826,13.801878 
	C1663.310059,24.324341 1679.071655,36.882004 1693.698120,51.018230 
	C1698.924561,56.069489 1704.688354,60.713127 1710.749146,64.723495 
	C1726.503052,75.147743 1742.756836,84.820114 1758.449951,95.331802 
	C1789.214966,115.938873 1816.930298,140.111969 1842.032349,167.376617 
	C1862.142822,189.219467 1879.805908,212.868027 1894.469604,238.580063 
	C1909.220581,264.444916 1920.775879,291.908783 1928.894531,320.553864 
	C1934.855469,341.585968 1939.202637,363.085999 1943.941040,384.450287 
	C1946.918091,397.872894 1949.423828,411.405304 1951.898438,424.932861 
	C1955.566528,444.984680 1958.508911,465.183350 1962.707275,485.120056 
	C1966.946167,505.249115 1972.305420,525.143433 1977.240234,545.124268 
	C1980.400635,557.920898 1987.954468,566.604004 2001.000000,570.000000 
	C2001.000000,572.700195 2001.000000,575.400330 2000.634155,578.515259 
	C1998.289673,578.151550 1996.335449,577.300293 1994.323486,576.620667 
	C1993.022217,576.181213 1991.636353,575.992737 1990.288330,575.691772 
	C1989.931274,577.382996 1988.817017,579.370239 1989.343262,580.716309 
	C1992.278442,588.224915 1995.578979,595.592651 1998.870361,602.956726 
	C1999.118164,603.510986 2000.269043,603.661682 2001.000000,604.000000 
	C2001.000000,796.024902 2001.000000,988.049805 2000.546631,1180.537354 
	C1995.206787,1180.333496 1990.326050,1179.620239 1985.432373,1179.010742 
	C1976.941162,1177.953491 1968.365601,1177.372803 1959.968506,1175.818970 
	C1952.285889,1174.397461 1944.785889,1171.977661 1937.217285,1169.953491 
	C1928.539062,1167.632690 1919.849243,1165.349121 1911.214478,1162.874756 
	C1907.425049,1161.788696 1903.784790,1160.192383 1900.031616,1158.966431 
	C1894.289795,1157.091064 1888.386230,1155.649780 1882.772583,1153.457275 
	C1873.848145,1149.972046 1865.061646,1146.119629 1856.296875,1142.241821 
	C1842.576782,1136.171265 1828.153564,1131.221680 1815.413330,1123.509033 
	C1793.607544,1110.308105 1772.428467,1095.945312 1751.851318,1080.888062 
	C1739.045776,1071.517700 1727.384033,1060.429321 1716.015991,1049.288574 
	C1701.801147,1035.358398 1688.456909,1020.542358 1674.651245,1006.191101 
	C1668.856201,1000.166992 1668.441528,1000.278381 1663.261475,1007.235168 
	C1662.206055,1005.847046 1661.038086,1004.705078 1660.337402,1003.325684 
	C1655.334351,993.479431 1650.301880,983.644592 1645.521729,973.689453 
	C1640.152222,962.507019 1634.901855,951.262695 1629.853516,939.932129 
	C1625.411011,929.961060 1621.273560,919.852722 1617.083496,909.770874 
	C1612.037109,897.628723 1607.075317,885.451416 1602.083374,873.286743 
	C1601.395630,871.610962 1600.619385,869.957947 1600.097534,868.229980 
	C1596.573242,856.561218 1593.223389,844.838440 1589.573120,833.209656 
	C1587.661865,827.120361 1584.822021,821.302856 1583.170654,815.155945 
	C1580.364624,804.711426 1578.495605,794.013367 1575.635010,783.585876 
	C1571.422119,768.229309 1565.226807,753.260071 1562.624756,737.667053 
	C1560.483643,724.836121 1555.886963,712.950195 1552.872437,700.522217 
	C1552.025635,697.031433 1551.209229,693.533142 1550.333618,690.049683 
	C1548.575317,683.056213 1546.794312,676.068359 1545.007324,669.082031 
	C1541.745972,656.331360 1538.484131,643.580811 1535.201660,630.835571 
	C1533.497437,624.218567 1531.727295,617.618591 1530.024902,611.001099 
	C1527.934204,602.873718 1526.152954,594.654907 1523.740967,586.624939 
	C1521.145508,577.984497 1517.767822,569.580688 1515.109619,560.957031 
	C1512.092041,551.168091 1509.801514,541.148865 1506.610352,531.421631 
	C1504.262451,524.264771 1501.020264,517.397156 1498.095093,510.434875 
	C1492.796631,497.823425 1487.826904,485.050934 1481.927002,472.725250 
	C1479.260498,467.154175 1474.673462,462.507050 1470.991699,457.416168 
	C1463.325317,446.815277 1456.299561,435.673920 1447.863647,425.727325 
	C1438.468018,414.649231 1428.220093,404.197723 1417.571167,394.304230 
	C1405.427368,383.021851 1392.776611,372.212433 1379.687378,362.045380 
	C1370.684570,355.052429 1360.708496,349.255890 1350.896851,343.376190 
	C1340.558228,337.180817 1330.111816,331.089508 1319.316284,325.754456 
	C1309.103271,320.707275 1298.423218,316.584869 1287.859009,312.275421 
	C1280.554810,309.295807 1273.123047,306.620605 1265.698975,303.946564 
	C1262.177124,302.678040 1258.542480,301.721161 1254.953979,300.639160 
	C1247.457031,298.378662 1239.981812,296.040192 1232.447876,293.909912 
	C1228.339722,292.748291 1224.108521,292.029449 1219.970337,290.965210 
	C1212.512573,289.047272 1205.156250,286.656342 1197.622070,285.133789 
	C1189.000000,283.391449 1180.253906,282.190643 1171.518921,281.096588 
	C1159.318481,279.568451 1147.108154,277.846619 1134.848145,277.128082 
	C1115.802368,276.011902 1096.712402,275.626892 1077.638184,275.028351 
	C1072.019775,274.852051 1066.380737,274.781860 1060.769409,275.048401 
	C1050.188232,275.551025 1039.625854,276.442413 1029.045532,276.973633 
	C1013.690308,277.744598 998.322388,278.271576 982.972290,279.125763 
	C981.596924,279.202301 980.312561,280.911987 978.985901,281.863220 
z"/>
<path fill="#C3D897" opacity="1.000000" stroke="none" 
	d="
M637.000000,1421.000000 
	C438.307495,1421.000000 239.615005,1421.000000 40.407524,1420.660645 
	C39.354118,1419.498291 38.947830,1418.537720 38.256977,1417.873047 
	C30.712894,1410.612671 23.324413,1403.171265 15.469539,1396.260864 
	C11.054471,1392.376709 5.849224,1389.390747 0.999980,1386.000000 
	C1.000000,1189.640869 1.000000,993.281677 1.383073,796.454285 
	C15.342258,801.994202 29.032360,807.759949 42.462471,814.078430 
	C55.924789,820.412109 69.163040,827.227661 82.433380,833.962219 
	C93.656822,839.657898 104.904152,845.324646 115.927994,851.391052 
	C131.445862,859.930603 146.913147,868.581909 162.135651,877.633423 
	C181.690262,889.260864 201.268951,900.891724 220.303589,913.337341 
	C239.171143,925.673767 257.384430,939.011841 275.866241,951.936890 
	C282.259033,956.407654 288.823822,960.672546 294.912537,965.529724 
	C308.403198,976.291565 321.727722,987.266724 334.961090,998.344666 
	C350.229858,1011.126465 365.837952,1023.566711 380.368805,1037.150024 
	C398.101196,1053.726074 415.132050,1071.081055 431.967407,1088.579224 
	C445.895111,1103.055298 459.676117,1117.749756 472.483856,1133.207642 
	C490.685089,1155.175171 508.434387,1177.561157 525.410095,1200.484253 
	C536.239014,1215.107178 545.974182,1230.649170 555.033081,1246.448242 
	C568.980408,1270.772827 582.339355,1295.459351 595.145264,1320.404419 
	C603.084839,1335.870361 609.915588,1351.942871 616.560669,1368.025513 
	C623.786377,1385.513184 630.220703,1403.327881 637.000000,1421.000000 
z"/>
<path fill="#EAEBBF" opacity="1.000000" stroke="none" 
	d="
M637.468628,1421.000000 
	C630.220703,1403.327881 623.786377,1385.513184 616.560669,1368.025513 
	C609.915588,1351.942871 603.084839,1335.870361 595.145264,1320.404419 
	C582.339355,1295.459351 568.980408,1270.772827 555.033081,1246.448242 
	C545.974182,1230.649170 536.239014,1215.107178 525.410095,1200.484253 
	C508.434387,1177.561157 490.685089,1155.175171 472.483856,1133.207642 
	C459.676117,1117.749756 445.895111,1103.055298 431.967407,1088.579224 
	C415.132050,1071.081055 398.101196,1053.726074 380.368805,1037.150024 
	C365.837952,1023.566711 350.229858,1011.126465 334.961090,998.344666 
	C321.727722,987.266724 308.403198,976.291565 294.912537,965.529724 
	C288.823822,960.672546 282.259033,956.407654 275.866241,951.936890 
	C257.384430,939.011841 239.171143,925.673767 220.303589,913.337341 
	C201.268951,900.891724 181.690262,889.260864 162.135651,877.633423 
	C146.913147,868.581909 131.445862,859.930603 115.927994,851.391052 
	C104.904152,845.324646 93.656822,839.657898 82.433380,833.962219 
	C69.163040,827.227661 55.924789,820.412109 42.462471,814.078430 
	C29.032360,807.759949 15.342258,801.994202 1.383073,795.993042 
	C1.000000,742.979126 1.000000,689.958191 1.369407,636.517090 
	C7.267453,638.281250 12.737322,640.633301 18.342918,642.598145 
	C23.016373,644.236206 27.963715,645.117615 32.586567,646.870117 
	C41.382996,650.205017 50.080730,653.813904 58.735222,657.506409 
	C72.393944,663.334167 86.078880,669.115662 99.578819,675.296570 
	C118.516968,683.967346 137.543839,692.500793 156.081772,701.975342 
	C181.112030,714.768005 205.849945,728.153503 230.435684,741.785400 
	C240.979095,747.631226 250.768631,754.825195 261.001953,761.245300 
	C270.558624,767.240845 280.457550,772.710938 289.831879,778.972229 
	C303.452148,788.069458 316.777466,797.611694 330.152863,807.071167 
	C343.641632,816.610718 357.241364,826.011963 370.417633,835.969727 
	C383.651337,845.971069 396.509674,856.477356 409.371979,866.959534 
	C421.712738,877.016541 433.996613,887.154175 446.029602,897.575012 
	C457.299255,907.334778 468.302643,917.408875 479.251190,927.530701 
	C494.019897,941.184021 508.663422,954.973755 523.275146,968.795410 
	C527.840271,973.113708 532.226318,977.633240 536.519653,982.224121 
	C542.189636,988.287231 547.548157,994.644958 553.292053,1000.634888 
	C561.979126,1009.693970 571.156616,1018.294678 579.626648,1027.546997 
	C590.608704,1039.543701 601.192383,1051.910522 611.780334,1064.261230 
	C625.064148,1079.756348 638.609558,1095.056274 651.258484,1111.059814 
	C667.590759,1131.723511 683.567566,1152.698975 698.914185,1174.101685 
	C712.705505,1193.335449 725.462830,1213.311646 738.613525,1233.002319 
	C740.804260,1236.282471 742.593933,1239.827637 744.709290,1243.161377 
	C749.416809,1250.580078 754.637634,1257.708496 758.870239,1265.384644 
	C764.693726,1275.946289 769.842041,1286.882812 775.197327,1297.699341 
	C781.711060,1310.855469 788.913147,1323.740356 794.414673,1337.311279 
	C801.798096,1355.524658 807.883179,1374.266846 814.436401,1392.813477 
	C817.666321,1401.954590 821.583984,1410.960327 821.000000,1421.000000 
	C759.979126,1421.000000 698.958191,1421.000000 637.468628,1421.000000 
z"/>
<path fill="#EAEBBF" opacity="1.000000" stroke="none" 
	d="
M2001.000000,569.531372 
	C1987.954468,566.604004 1980.400635,557.920898 1977.240234,545.124268 
	C1972.305420,525.143433 1966.946167,505.249115 1962.707275,485.120056 
	C1958.508911,465.183350 1955.566528,444.984680 1951.898438,424.932861 
	C1949.423828,411.405304 1946.918091,397.872894 1943.941040,384.450287 
	C1939.202637,363.085999 1934.855469,341.585968 1928.894531,320.553864 
	C1920.775879,291.908783 1909.220581,264.444916 1894.469604,238.580063 
	C1879.805908,212.868027 1862.142822,189.219467 1842.032349,167.376617 
	C1816.930298,140.111969 1789.214966,115.938873 1758.449951,95.331802 
	C1742.756836,84.820114 1726.503052,75.147743 1710.749146,64.723495 
	C1704.688354,60.713127 1698.924561,56.069489 1693.698120,51.018230 
	C1679.071655,36.882004 1663.310059,24.324341 1645.871826,13.801878 
	C1639.988647,10.251906 1634.676636,5.755467 1629.051758,1.345788 
	C1752.942383,1.000000 1876.884644,1.000000 2001.000000,1.000000 
	C2001.000000,190.354187 2001.000000,379.708435 2001.000000,569.531372 
z"/>
<path fill="#EAEBBF" opacity="1.000000" stroke="none" 
	d="
M2001.000000,1184.000000 
	C2001.000000,1232.020874 2001.000000,1280.041870 2000.585938,1328.546631 
	C1995.781494,1327.647095 1991.229248,1326.636597 1987.030396,1324.812378 
	C1972.896851,1318.672485 1958.621948,1312.770142 1944.892212,1305.808105 
	C1920.730835,1293.556885 1898.213135,1278.615967 1876.841064,1261.954834 
	C1862.699707,1250.930420 1848.281494,1240.292969 1835.668457,1227.390869 
	C1826.850464,1218.370850 1816.849976,1210.500366 1808.109619,1201.412231 
	C1798.920776,1191.857788 1790.536865,1181.522095 1781.922607,1171.424194 
	C1770.731567,1158.305542 1759.012207,1145.569580 1748.699585,1131.786499 
	C1735.491211,1114.133179 1723.068604,1095.854370 1711.029297,1077.374756 
	C1699.717041,1060.011230 1689.296997,1042.064087 1678.627930,1024.287598 
	C1677.516846,1022.436401 1677.379639,1020.000793 1676.790405,1017.836365 
	C1677.422241,1017.486328 1678.054199,1017.136292 1678.686035,1016.786255 
	C1681.574219,1019.793945 1684.384399,1022.881470 1687.364258,1025.795410 
	C1698.994629,1037.167725 1710.685425,1048.478394 1722.341309,1059.824829 
	C1739.781372,1076.801636 1759.307739,1091.216309 1779.271851,1104.941772 
	C1800.352539,1119.434814 1822.860229,1131.623291 1846.567261,1141.306274 
	C1866.173218,1149.313965 1885.868286,1157.245117 1905.968384,1163.859619 
	C1923.214600,1169.535034 1940.961426,1173.896606 1958.728516,1177.715576 
	C1972.627197,1180.703003 1986.895752,1181.968994 2001.000000,1184.000000 
z"/>
<path fill="#C9DB9C" opacity="1.000000" stroke="none" 
	d="
M821.460632,1421.000000 
	C821.583984,1410.960327 817.666321,1401.954590 814.436401,1392.813477 
	C807.883179,1374.266846 801.798096,1355.524658 794.414673,1337.311279 
	C788.913147,1323.740356 781.711060,1310.855469 775.197327,1297.699341 
	C769.842041,1286.882812 764.693726,1275.946289 758.870239,1265.384644 
	C754.637634,1257.708496 749.416809,1250.580078 744.709290,1243.161377 
	C742.593933,1239.827637 740.804260,1236.282471 738.613525,1233.002319 
	C725.462830,1213.311646 712.705505,1193.335449 698.914185,1174.101685 
	C683.567566,1152.698975 667.590759,1131.723511 651.258484,1111.059814 
	C638.609558,1095.056274 625.064148,1079.756348 611.780334,1064.261230 
	C601.192383,1051.910522 590.608704,1039.543701 579.626648,1027.546997 
	C571.156616,1018.294678 561.979126,1009.693970 553.292053,1000.634888 
	C547.548157,994.644958 542.189636,988.287231 536.519653,982.224121 
	C532.226318,977.633240 527.840271,973.113708 523.275146,968.795410 
	C508.663422,954.973755 494.019897,941.184021 479.251190,927.530701 
	C468.302643,917.408875 457.299255,907.334778 446.029602,897.575012 
	C433.996613,887.154175 421.712738,877.016541 409.371979,866.959534 
	C396.509674,856.477356 383.651337,845.971069 370.417633,835.969727 
	C357.241364,826.011963 343.641632,816.610718 330.152863,807.071167 
	C316.777466,797.611694 303.452148,788.069458 289.831879,778.972229 
	C280.457550,772.710938 270.558624,767.240845 261.001953,761.245300 
	C250.768631,754.825195 240.979095,747.631226 230.435684,741.785400 
	C205.849945,728.153503 181.112030,714.768005 156.081772,701.975342 
	C137.543839,692.500793 118.516968,683.967346 99.578819,675.296570 
	C86.078880,669.115662 72.393944,663.334167 58.735222,657.506409 
	C50.080730,653.813904 41.382996,650.205017 32.586567,646.870117 
	C27.963715,645.117615 23.016373,644.236206 18.342918,642.598145 
	C12.737322,640.633301 7.267453,638.281250 1.369407,636.048462 
	C1.000000,632.969421 1.000000,629.938782 1.000005,626.454102 
	C11.572098,629.847412 22.125000,633.748779 32.723194,637.522949 
	C39.507885,639.939026 46.470314,641.887756 53.157421,644.539429 
	C66.219299,649.718994 79.241066,655.023743 92.101936,660.680298 
	C109.665848,668.405334 127.210785,676.202576 144.493469,684.530090 
	C163.002121,693.448303 181.304779,702.813232 199.484039,712.388123 
	C208.820007,717.305359 217.658051,723.161804 226.782394,728.488708 
	C235.652390,733.667114 244.713730,738.525513 253.485916,743.861694 
	C264.381714,750.489868 275.070618,757.458252 285.841827,764.290955 
	C296.468903,771.032349 307.279144,777.506897 317.661102,784.607300 
	C330.941162,793.689941 343.947876,803.179443 356.933167,812.683777 
	C369.528564,821.902771 382.129944,831.131104 394.391693,840.783447 
	C405.987915,849.911987 417.178070,859.558899 428.488525,869.047302 
	C440.937561,879.490906 453.367676,889.958191 465.712616,900.524353 
	C472.400177,906.248413 479.091187,911.993469 485.437714,918.086304 
	C507.027039,938.812866 528.842041,959.325439 549.846558,980.633789 
	C568.744995,999.805603 587.227600,1019.448425 604.918945,1039.733521 
	C626.615601,1064.611206 647.681458,1090.066650 668.299377,1115.848633 
	C684.674438,1136.325195 700.273743,1157.445557 715.654358,1178.687744 
	C732.174744,1201.504028 748.105347,1224.754028 761.703918,1249.491577 
	C771.278259,1266.908325 781.291809,1284.107910 790.183594,1301.867798 
	C797.010376,1315.503296 802.735779,1329.726807 808.326660,1343.934570 
	C814.607727,1359.895996 820.518066,1376.023193 825.941772,1392.294312 
	C828.965210,1401.364868 830.671509,1410.874634 832.985657,1420.593262 
	C829.307068,1421.000000 825.614197,1421.000000 821.460632,1421.000000 
z"/>
<path fill="#C9DB9C" opacity="1.000000" stroke="none" 
	d="
M2001.000000,1183.625000 
	C1986.895752,1181.968994 1972.627197,1180.703003 1958.728516,1177.715576 
	C1940.961426,1173.896606 1923.214600,1169.535034 1905.968384,1163.859619 
	C1885.868286,1157.245117 1866.173218,1149.313965 1846.567261,1141.306274 
	C1822.860229,1131.623291 1800.352539,1119.434814 1779.271851,1104.941772 
	C1759.307739,1091.216309 1739.781372,1076.801636 1722.341309,1059.824829 
	C1710.685425,1048.478394 1698.994629,1037.167725 1687.364258,1025.795410 
	C1684.384399,1022.881470 1681.574219,1019.793945 1678.686035,1016.786255 
	C1678.054199,1017.136292 1677.422241,1017.486328 1676.790405,1017.836365 
	C1677.379639,1020.000793 1677.516846,1022.436401 1678.627930,1024.287598 
	C1689.296997,1042.064087 1699.717041,1060.011230 1711.029297,1077.374756 
	C1723.068604,1095.854370 1735.491211,1114.133179 1748.699585,1131.786499 
	C1759.012207,1145.569580 1770.731567,1158.305542 1781.922607,1171.424194 
	C1790.536865,1181.522095 1798.920776,1191.857788 1808.109619,1201.412231 
	C1816.849976,1210.500366 1826.850464,1218.370850 1835.668457,1227.390869 
	C1848.281494,1240.292969 1862.699707,1250.930420 1876.841064,1261.954834 
	C1898.213135,1278.615967 1920.730835,1293.556885 1944.892212,1305.808105 
	C1958.621948,1312.770142 1972.896851,1318.672485 1987.030396,1324.812378 
	C1991.229248,1326.636597 1995.781494,1327.647095 2000.585938,1329.015259 
	C2001.000000,1332.692871 2001.000000,1336.385864 2001.000000,1340.539307 
	C1994.766724,1338.820679 1988.361816,1337.031982 1982.333984,1334.384644 
	C1967.339844,1327.799683 1952.185059,1321.452881 1937.722900,1313.820435 
	C1924.258301,1306.714355 1911.276733,1298.554199 1898.675171,1289.986328 
	C1882.251343,1278.819702 1866.176758,1267.100220 1850.413208,1255.016724 
	C1841.609253,1248.268188 1833.633179,1240.415771 1825.478271,1232.851318 
	C1817.094849,1225.074707 1808.579102,1217.387573 1800.785645,1209.040771 
	C1789.596558,1197.057129 1778.940430,1184.571533 1768.192749,1172.182129 
	C1762.213745,1165.289917 1756.148193,1158.424805 1750.752075,1151.084106 
	C1736.018677,1131.040649 1721.175781,1111.052490 1707.218384,1090.471558 
	C1694.294678,1071.415161 1681.533569,1052.133667 1670.385864,1032.017700 
	C1657.141357,1008.118103 1645.285767,983.415283 1633.610474,958.691223 
	C1625.287720,941.066772 1617.906250,922.970642 1610.752441,904.829529 
	C1604.372925,888.651855 1598.792480,872.155212 1593.028320,855.739990 
	C1588.744263,843.539612 1584.296631,831.370178 1580.697021,818.962036 
	C1575.117554,799.728882 1570.157837,780.314880 1565.010742,760.957520 
	C1560.630005,744.481384 1556.288940,727.994019 1552.053101,711.480164 
	C1547.652954,694.326111 1543.431885,677.126099 1539.068970,659.962402 
	C1536.944092,651.602966 1534.598511,643.299377 1532.493774,634.935059 
	C1530.760254,628.046448 1529.536865,621.017395 1527.550537,614.207214 
	C1524.026123,602.123535 1520.000977,590.186951 1516.363525,578.135010 
	C1513.460693,568.517334 1511.250366,558.672058 1507.976440,549.188904 
	C1501.551147,530.577576 1494.734375,512.097534 1487.832031,493.655823 
	C1478.589355,468.961517 1461.822876,449.063721 1445.428223,429.092712 
	C1436.060425,417.681366 1425.739136,406.958099 1415.082764,396.720795 
	C1397.701294,380.022552 1378.682129,365.387238 1358.590698,351.907349 
	C1338.874756,338.679321 1317.875366,328.248810 1296.245728,318.974609 
	C1282.040039,312.883575 1267.439087,307.512238 1252.643066,303.052246 
	C1234.308350,297.525574 1215.628540,293.113159 1197.012939,288.566803 
	C1191.093018,287.121063 1184.904541,286.766968 1178.834717,285.945435 
	C1164.481323,284.002777 1150.150635,281.853973 1135.760376,280.237640 
	C1127.855103,279.349701 1119.851074,279.269501 1111.885498,279.007111 
	C1099.090942,278.585632 1086.284912,277.885590 1073.495483,278.077393 
	C1052.228027,278.396301 1030.965942,279.226593 1009.709473,280.047241 
	C999.771057,280.430908 989.851257,281.295105 979.454468,281.902374 
	C980.312561,280.911987 981.596924,279.202301 982.972290,279.125763 
	C998.322388,278.271576 1013.690308,277.744598 1029.045532,276.973633 
	C1039.625854,276.442413 1050.188232,275.551025 1060.769409,275.048401 
	C1066.380737,274.781860 1072.019775,274.852051 1077.638184,275.028351 
	C1096.712402,275.626892 1115.802368,276.011902 1134.848145,277.128082 
	C1147.108154,277.846619 1159.318481,279.568451 1171.518921,281.096588 
	C1180.253906,282.190643 1189.000000,283.391449 1197.622070,285.133789 
	C1205.156250,286.656342 1212.512573,289.047272 1219.970337,290.965210 
	C1224.108521,292.029449 1228.339722,292.748291 1232.447876,293.909912 
	C1239.981812,296.040192 1247.457031,298.378662 1254.953979,300.639160 
	C1258.542480,301.721161 1262.177124,302.678040 1265.698975,303.946564 
	C1273.123047,306.620605 1280.554810,309.295807 1287.859009,312.275421 
	C1298.423218,316.584869 1309.103271,320.707275 1319.316284,325.754456 
	C1330.111816,331.089508 1340.558228,337.180817 1350.896851,343.376190 
	C1360.708496,349.255890 1370.684570,355.052429 1379.687378,362.045380 
	C1392.776611,372.212433 1405.427368,383.021851 1417.571167,394.304230 
	C1428.220093,404.197723 1438.468018,414.649231 1447.863647,425.727325 
	C1456.299561,435.673920 1463.325317,446.815277 1470.991699,457.416168 
	C1474.673462,462.507050 1479.260498,467.154175 1481.927002,472.725250 
	C1487.826904,485.050934 1492.796631,497.823425 1498.095093,510.434875 
	C1501.020264,517.397156 1504.262451,524.264771 1506.610352,531.421631 
	C1509.801514,541.148865 1512.092041,551.168091 1515.109619,560.957031 
	C1517.767822,569.580688 1521.145508,577.984497 1523.740967,586.624939 
	C1526.152954,594.654907 1527.934204,602.873718 1530.024902,611.001099 
	C1531.727295,617.618591 1533.497437,624.218567 1535.201660,630.835571 
	C1538.484131,643.580811 1541.745972,656.331360 1545.007324,669.082031 
	C1546.794312,676.068359 1548.575317,683.056213 1550.333618,690.049683 
	C1551.209229,693.533142 1552.025635,697.031433 1552.872437,700.522217 
	C1555.886963,712.950195 1560.483643,724.836121 1562.624756,737.667053 
	C1565.226807,753.260071 1571.422119,768.229309 1575.635010,783.585876 
	C1578.495605,794.013367 1580.364624,804.711426 1583.170654,815.155945 
	C1584.822021,821.302856 1587.661865,827.120361 1589.573120,833.209656 
	C1593.223389,844.838440 1596.573242,856.561218 1600.097534,868.229980 
	C1600.619385,869.957947 1601.395630,871.610962 1602.083374,873.286743 
	C1607.075317,885.451416 1612.037109,897.628723 1617.083496,909.770874 
	C1621.273560,919.852722 1625.411011,929.961060 1629.853516,939.932129 
	C1634.901855,951.262695 1640.152222,962.507019 1645.521729,973.689453 
	C1650.301880,983.644592 1655.334351,993.479431 1660.337402,1003.325684 
	C1661.038086,1004.705078 1662.206055,1005.847046 1663.261475,1007.235168 
	C1668.441528,1000.278381 1668.856201,1000.166992 1674.651245,1006.191101 
	C1688.456909,1020.542358 1701.801147,1035.358398 1716.015991,1049.288574 
	C1727.384033,1060.429321 1739.045776,1071.517700 1751.851318,1080.888062 
	C1772.428467,1095.945312 1793.607544,1110.308105 1815.413330,1123.509033 
	C1828.153564,1131.221680 1842.576782,1136.171265 1856.296875,1142.241821 
	C1865.061646,1146.119629 1873.848145,1149.972046 1882.772583,1153.457275 
	C1888.386230,1155.649780 1894.289795,1157.091064 1900.031616,1158.966431 
	C1903.784790,1160.192383 1907.425049,1161.788696 1911.214478,1162.874756 
	C1919.849243,1165.349121 1928.539062,1167.632690 1937.217285,1169.953491 
	C1944.785889,1171.977661 1952.285889,1174.397461 1959.968506,1175.818970 
	C1968.365601,1177.372803 1976.941162,1177.953491 1985.432373,1179.010742 
	C1990.326050,1179.620239 1995.206787,1180.333496 2000.546631,1181.000000 
	C2001.000000,1181.750000 2001.000000,1182.500000 2001.000000,1183.625000 
z"/>
<path fill="#EAEBBF" opacity="1.000000" stroke="none" 
	d="
M1229.531372,0.999996 
	C1225.396973,2.903134 1220.923950,5.260437 1216.165771,6.621089 
	C1203.741089,10.174041 1191.229126,13.443017 1178.678955,16.528542 
	C1170.163574,18.622126 1161.528076,20.229399 1152.940308,22.025892 
	C1144.695557,23.750648 1136.506958,25.911459 1128.179443,27.033094 
	C1115.552612,28.733829 1102.845825,30.481377 1090.138550,30.789574 
	C1072.875366,31.208269 1055.536743,30.905357 1038.314209,29.707621 
	C1028.159790,29.001434 1018.065552,26.371908 1008.128357,23.874676 
	C996.100525,20.852043 984.123169,17.472908 972.406555,13.429094 
	C965.902771,11.184433 959.952271,7.313646 953.816406,4.055327 
	C953.047546,3.647039 952.670593,2.500737 952.056030,1.348183 
	C1044.354248,1.000000 1136.708496,1.000000 1229.531372,0.999996 
z"/>
<path fill="#EAEBBF" opacity="1.000000" stroke="none" 
	d="
M144.000000,1.000000 
	C161.354233,1.000000 178.708450,1.000000 196.585999,1.344584 
	C198.748596,3.961663 200.060745,6.590754 202.082901,8.445888 
	C211.622360,17.197330 221.192093,25.930212 231.058929,34.307030 
	C246.228317,47.185654 261.601807,59.825691 276.975464,72.461456 
	C297.215973,89.097382 317.542786,105.628304 337.825012,122.213509 
	C339.618408,123.680031 341.506836,125.078316 343.047028,126.783020 
	C343.663849,127.465714 343.928040,129.177017 343.491028,129.897369 
	C343.074127,130.584579 341.471924,130.976013 340.505035,130.814362 
	C338.727753,130.517212 336.975250,129.849976 335.316742,129.104843 
	C329.604095,126.538330 323.875763,123.994255 318.264923,121.216393 
	C307.899811,116.084740 297.271729,111.365295 287.369843,105.443146 
	C269.860870,94.971359 252.647354,83.978973 235.627243,72.724976 
	C222.506241,64.049164 209.704926,54.862732 197.065536,45.493168 
	C184.013641,35.817818 171.162872,25.851137 158.562775,15.595814 
	C153.260864,11.280539 148.827957,5.897595 144.000000,1.000000 
z"/>
<path fill="#C9DB9C" opacity="1.000000" stroke="none" 
	d="
M143.539368,1.000000 
	C148.827957,5.897595 153.260864,11.280539 158.562775,15.595814 
	C171.162872,25.851137 184.013641,35.817818 197.065536,45.493168 
	C209.704926,54.862732 222.506241,64.049164 235.627243,72.724976 
	C252.647354,83.978973 269.860870,94.971359 287.369843,105.443146 
	C297.271729,111.365295 307.899811,116.084740 318.264923,121.216393 
	C323.875763,123.994255 329.604095,126.538330 335.316742,129.104843 
	C336.975250,129.849976 338.727753,130.517212 340.505035,130.814362 
	C341.471924,130.976013 343.074127,130.584579 343.491028,129.897369 
	C343.928040,129.177017 343.663849,127.465714 343.047028,126.783020 
	C341.506836,125.078316 339.618408,123.680031 337.825012,122.213509 
	C317.542786,105.628304 297.215973,89.097382 276.975464,72.461456 
	C261.601807,59.825691 246.228317,47.185654 231.058929,34.307030 
	C221.192093,25.930212 211.622360,17.197330 202.082901,8.445888 
	C200.060745,6.590754 198.748596,3.961663 197.054657,1.344584 
	C199.700012,1.000000 202.400024,1.000000 205.550018,1.000000 
	C205.058716,6.515051 207.986893,9.601545 212.089111,12.941130 
	C221.833450,20.873917 230.918930,29.610453 240.415054,37.855885 
	C245.797592,42.529499 251.547363,46.777996 256.984344,51.391644 
	C264.434662,57.713661 271.588470,64.392334 279.154327,70.569038 
	C288.914642,78.537231 298.957886,86.158699 308.876953,93.932495 
	C320.478088,103.024544 332.485138,111.659683 343.488129,121.425850 
	C348.317047,125.711975 354.249084,130.767548 352.316864,139.107025 
	C352.170471,139.738800 353.088135,140.904358 353.803711,141.395737 
	C356.124237,142.989105 358.402618,144.999329 361.014038,145.756622 
	C379.480774,151.111969 395.498077,161.116653 411.166443,171.783295 
	C423.486938,180.170761 435.477478,189.057159 447.980042,197.157959 
	C456.571014,202.724350 465.925354,207.097595 474.696808,212.403671 
	C493.868683,224.001190 513.363892,234.880463 534.192261,243.334534 
	C548.081665,248.972168 561.553040,255.632385 575.375122,261.445923 
	C584.314819,265.205933 593.515320,268.362457 602.678467,271.561798 
	C604.808716,272.305634 607.349915,271.808746 609.552063,272.421722 
	C618.878357,275.017731 628.100891,277.995270 637.458191,280.467010 
	C642.181702,281.714752 647.123230,282.118622 651.945251,283.016724 
	C657.707458,284.089905 663.435242,285.349548 669.200562,286.404724 
	C674.042603,287.290985 678.912476,288.030426 683.778503,288.779449 
	C689.911255,289.723419 696.029968,290.839996 702.197327,291.451813 
	C707.307312,291.958710 712.478638,291.863617 717.623718,291.997559 
	C743.496826,292.671051 769.423401,294.609436 795.224365,293.535217 
	C811.604980,292.853241 827.986572,292.289978 844.380859,292.018646 
	C845.690491,291.996948 847.005188,292.273468 848.638489,292.661957 
	C844.428162,293.590973 839.910400,294.740173 835.363342,294.871155 
	C806.942322,295.689850 778.488708,297.321625 750.097534,296.613647 
	C727.962708,296.061676 705.664856,295.574921 683.712830,291.248566 
	C671.700867,288.881256 659.406616,287.973419 647.348022,285.805237 
	C639.140259,284.329468 631.079041,281.958099 623.026672,279.719421 
	C613.446838,277.056030 603.800842,274.515747 594.445679,271.185547 
	C579.821838,265.979797 565.193542,260.670349 550.976440,254.466705 
	C531.731323,246.069061 512.639099,237.244400 493.929169,227.722961 
	C480.809357,221.046326 468.223999,213.236420 455.777924,205.337051 
	C433.062622,190.919907 410.954315,175.519135 387.923157,161.639816 
	C378.007080,155.664078 366.350952,152.621201 355.609192,147.960403 
	C335.988556,139.447083 316.114929,131.412048 297.003601,121.863083 
	C282.005310,114.369179 267.770081,105.249519 253.605240,96.210564 
	C235.017883,84.349464 216.519211,72.297523 198.575668,59.496075 
	C184.689865,49.589535 171.693466,38.433064 158.345123,27.777834 
	C151.734833,22.501204 145.195221,17.134796 138.677368,11.744047 
	C135.484360,9.103196 131.961365,6.615132 132.011719,1.386261 
	C135.692902,1.000000 139.385818,1.000000 143.539368,1.000000 
z"/>
<path fill="#EAEBBF" opacity="1.000000" stroke="none" 
	d="
M1620.531372,1.000000 
	C1620.404663,4.560060 1621.859131,6.819903 1624.941528,8.759359 
	C1634.312500,14.655368 1643.562622,20.751472 1652.709106,26.990707 
	C1655.417236,28.838051 1657.696045,31.348040 1660.021851,33.702240 
	C1660.730347,34.419369 1660.938232,35.631069 1661.375488,36.616249 
	C1660.207886,36.872696 1658.898804,37.605816 1657.895996,37.307888 
	C1651.584106,35.432785 1645.248169,33.572678 1639.092041,31.251593 
	C1623.975708,25.552094 1609.003662,19.468840 1593.873901,13.806164 
	C1583.860718,10.058490 1573.669189,6.788588 1563.577393,3.247997 
	C1562.705444,2.942121 1561.982910,2.210485 1561.095459,1.338332 
	C1580.687622,1.000000 1600.375122,1.000000 1620.531372,1.000000 
z"/>
<path fill="#EAEBBF" opacity="1.000000" stroke="none" 
	d="
M0.999980,1386.468628 
	C5.849224,1389.390747 11.054471,1392.376709 15.469539,1396.260864 
	C23.324413,1403.171265 30.712894,1410.612671 38.256977,1417.873047 
	C38.947830,1418.537720 39.354118,1419.498291 39.946270,1420.660645 
	C27.077337,1421.000000 14.154676,1421.000000 1.000000,1421.000000 
	C1.000000,1409.646851 1.000000,1398.291992 0.999980,1386.468628 
z"/>
<path fill="#EAEBBF" opacity="1.000000" stroke="none" 
	d="
M2001.000000,603.531372 
	C2000.269043,603.661682 1999.118164,603.510986 1998.870361,602.956726 
	C1995.578979,595.592651 1992.278442,588.224915 1989.343262,580.716309 
	C1988.817017,579.370239 1989.931274,577.382996 1990.288330,575.691772 
	C1991.636353,575.992737 1993.022217,576.181213 1994.323486,576.620667 
	C1996.335449,577.300293 1998.289673,578.151550 2000.634155,578.965027 
	C2001.000000,587.020935 2001.000000,595.041809 2001.000000,603.531372 
z"/>
<path fill="#C9DB9C" opacity="1.000000" stroke="none" 
	d="
M851.457397,292.942688 
	C852.877075,291.944153 854.705200,290.274017 856.656494,290.115021 
	C871.546326,288.901855 886.564697,288.758026 901.338440,286.764862 
	C917.486633,284.586243 933.645691,283.718109 949.844971,282.558990 
	C958.343262,281.950897 966.770020,280.873932 975.636719,281.661133 
	C974.002258,282.589813 972.085693,283.699127 970.085754,283.878418 
	C954.125427,285.309265 938.152649,286.606445 922.177063,287.859741 
	C908.164978,288.958984 894.145203,289.960876 880.127136,290.981842 
	C870.727295,291.666473 861.324463,292.309448 851.457397,292.942688 
z"/>
</svg>